{
  "accessors": [
    {
      "name": "CPLZ001_1_0_positions",
      "componentType": 5126,
      "count": 555,
      "min": [
        -44.0614013671875,
        0,
        -98.96929931640625
      ],
      "max": [
        44.0614013671875,
        175.98899841308594,
        98.96929931640625
      ],
      "type": "VEC3",
      "bufferView": 0,
      "byteOffset": 0
    },
    {
      "name": "CPLZ001_1_0_normals",
      "componentType": 5126,
      "count": 555,
      "min": [
        -1,
        -1,
        -1
      ],
      "max": [
        1,
        1,
        1
      ],
      "type": "VEC3",
      "bufferView": 1,
      "byteOffset": 0
    },
    {
      "name": "CPLZ001_1_0_texcoords",
      "componentType": 5126,
      "count": 555,
      "min": [
        0.0860000029206276,
        0.011500000022351742
      ],
      "max": [
        0.9894999861717224,
        0.9958999752998352
      ],
      "type": "VEC2",
      "bufferView": 2,
      "byteOffset": 0
    },
    {
      "name": "CPLZ001_1_0_indices",
      "componentType": 5123,
      "count": 1968,
      "min": [
        0
      ],
      "max": [
        554
      ],
      "type": "SCALAR",
      "bufferView": 3,
      "byteOffset": 0
    }
  ],
  "asset": {
    "generator": "obj2gltf",
    "version": "2.0"
  },
  "buffers": [
    {
      "name": "CPLZ001",
      "byteLength": 223616,
      "uri": "data:application/octet-stream;base64,"
    }
  ],
  "bufferViews": [
    {
      "name": "bufferView_0",
      "buffer": 0,
      "byteLength": 6660,
      "byteOffset": 0,
      "byteStride": 12,
      "target": 34962
    },
    {
      "name": "bufferView_1",
      "buffer": 0,
      "byteLength": 6660,
      "byteOffset": 6660,
      "byteStride": 12,
      "target": 34962
    },
    {
      "name": "bufferView_2",
      "buffer": 0,
      "byteLength": 4440,
      "byteOffset": 13320,
      "byteStride": 8,
      "target": 34962
    },
    {
      "name": "bufferView_3",
      "buffer": 0,
      "byteLength": 3936,
      "byteOffset": 17760,
      "target": 34963
    },
    {
      "buffer": 0,
      "byteOffset": 21696,
      "byteLength": 201918
    }
  ],
  "images": [
    {
      "name": "CPDJKYQ0001",
      "mimeType": "image/png",
      "bufferView": 4
    }
  ],
  "materials": [
    {
      "name": "B03_jiazichaung",
      "pbrMetallicRoughness": {
        "baseColorTexture": {
          "index": 0
        },
        "baseColorFactor": [
          1,
          1,
          1,
          1
        ],
        "metallicFactor": 0,
        "roughnessFactor": 0.99
      },
      "emissiveFactor": [
        0,
        0,
        0
      ],
      "alphaMode": "OPAQUE",
      "doubleSided": false
    }
  ],
  "meshes": [
    {
      "name": "CPLZ001_1",
      "primitives": [
        {
          "attributes": {
            "POSITION": 0,
            "NORMAL": 1,
            "TEXCOORD_0": 2
          },
          "indices": 3,
          "material": 0,
          "mode": 4
        }
      ]
    }
  ],
  "nodes": [
    {
      "name": "CPLZ001",
      "mesh": 0
    }
  ],
  "samplers": [
    {
      "magFilter": 9729,
      "minFilter": 9986,
      "wrapS": 10497,
      "wrapT": 10497
    }
  ],
  "scene": 0,
  "scenes": [
    {
      "nodes": [
        0
      ]
    }
  ],
  "textures": [
    {
      "name": "CPDJKYQ0001",
      "sampler": 0,
      "source": 0
    }
  ]
}
