{
  "accessors": [
    {
      "name": "JZYXFSMX001_1_0_positions",
      "componentType": 5126,
      "count": 3975,
      "min": [
        -0.13429999351501465,
        0.013299999758601189,
        -0.20839999616146088
      ],
      "max": [
        0.20990000665187836,
        0.7623999714851379,
        0.1679999977350235
      ],
      "type": "VEC3",
      "bufferView": 0,
      "byteOffset": 0
    },
    {
      "name": "JZYXFSMX001_1_0_normals",
      "componentType": 5126,
      "count": 3975,
      "min": [
        -1,
        -1,
        -1
      ],
      "max": [
        1,
        1,
        1
      ],
      "type": "VEC3",
      "bufferView": 1,
      "byteOffset": 0
    },
    {
      "name": "JZYXFSMX001_1_0_texcoords",
      "componentType": 5126,
      "count": 3975,
      "min": [
        -187.6938018798828,
        -374.0339050292969
      ],
      "max": [
        188.6938018798828,
        375.0339050292969
      ],
      "type": "VEC2",
      "bufferView": 2,
      "byteOffset": 0
    },
    {
      "name": "JZYXFSMX001_1_0_indices",
      "componentType": 5123,
      "count": 6915,
      "min": [
        0
      ],
      "max": [
        3974
      ],
      "type": "SCALAR",
      "bufferView": 3,
      "byteOffset": 0
    }
  ],
  "asset": {
    "generator": "obj2gltf",
    "version": "2.0"
  },
  "buffers": [
    {
      "name": "XFS",
      "byteLength": 165440,
      "uri": "data:application/octet-stream;base64,"
    }
  ],
  "bufferViews": [
    {
      "name": "bufferView_0",
      "buffer": 0,
      "byteLength": 47700,
      "byteOffset": 0,
      "byteStride": 12,
      "target": 34962
    },
    {
      "name": "bufferView_1",
      "buffer": 0,
      "byteLength": 47700,
      "byteOffset": 47700,
      "byteStride": 12,
      "target": 34962
    },
    {
      "name": "bufferView_2",
      "buffer": 0,
      "byteLength": 31800,
      "byteOffset": 95400,
      "byteStride": 8,
      "target": 34962
    },
    {
      "name": "bufferView_3",
      "buffer": 0,
      "byteLength": 13832,
      "byteOffset": 127200,
      "target": 34963
    },
    {
      "buffer": 0,
      "byteOffset": 141032,
      "byteLength": 24406
    }
  ],
  "images": [
    {
      "name": "JZYXFSWL001",
      "mimeType": "image/jpeg",
      "bufferView": 4
    }
  ],
  "materials": [
    {
      "name": "Material__25",
      "pbrMetallicRoughness": {
        "baseColorTexture": {
          "index": 0
        },
        "baseColorFactor": [
          1,
          1,
          1,
          1
        ],
        "metallicFactor": 0,
        "roughnessFactor": 0.99
      },
      "emissiveFactor": [
        0,
        0,
        0
      ],
      "alphaMode": "OPAQUE",
      "doubleSided": false
    }
  ],
  "meshes": [
    {
      "name": "JZYXFSMX001_1",
      "primitives": [
        {
          "attributes": {
            "POSITION": 0,
            "NORMAL": 1,
            "TEXCOORD_0": 2
          },
          "indices": 3,
          "material": 0,
          "mode": 4
        }
      ]
    }
  ],
  "nodes": [
    {
      "name": "JZYXFSMX001",
      "mesh": 0
    }
  ],
  "samplers": [
    {
      "magFilter": 9729,
      "minFilter": 9986,
      "wrapS": 10497,
      "wrapT": 10497
    }
  ],
  "scene": 0,
  "scenes": [
    {
      "nodes": [
        0
      ]
    }
  ],
  "textures": [
    {
      "name": "JZYXFSWL001",
      "sampler": 0,
      "source": 0
    }
  ]
}
