{
  "accessors": [
    {
      "name": "KJG001_1_0_positions",
      "componentType": 5126,
      "count": 28,
      "min": [
        -0.30000001192092896,
        0.029999999329447746,
        -0.30000001192092896
      ],
      "max": [
        0.30000001192092896,
        0.029999999329447746,
        0.30000001192092896
      ],
      "type": "VEC3",
      "bufferView": 0,
      "byteOffset": 0
    },
    {
      "name": "KJG001_1_0_normals",
      "componentType": 5126,
      "count": 28,
      "min": [
        0,
        1,
        0
      ],
      "max": [
        0,
        1,
        0
      ],
      "type": "VEC3",
      "bufferView": 1,
      "byteOffset": 0
    },
    {
      "name": "KJG001_1_0_texcoords",
      "componentType": 5126,
      "count": 28,
      "min": [
        0.010499999858438969,
        0.0005000000237487257
      ],
      "max": [
        0.9794999957084656,
        0.9894999861717224
      ],
      "type": "VEC2",
      "bufferView": 2,
      "byteOffset": 0
    },
    {
      "name": "KJG001_1_0_indices",
      "componentType": 5123,
      "count": 78,
      "min": [
        0
      ],
      "max": [
        27
      ],
      "type": "SCALAR",
      "bufferView": 3,
      "byteOffset": 0
    },
    {
      "name": "KJG001_1_1_positions",
      "componentType": 5126,
      "count": 92,
      "min": [
        -0.30000001192092896,
        0,
        -0.30000001192092896
      ],
      "max": [
        0.30000001192092896,
        0.029999999329447746,
        0.30000001192092896
      ],
      "type": "VEC3",
      "bufferView": 0,
      "byteOffset": 336
    },
    {
      "name": "KJG001_1_1_normals",
      "componentType": 5126,
      "count": 92,
      "min": [
        -1,
        -1,
        -1
      ],
      "max": [
        1,
        0,
        1
      ],
      "type": "VEC3",
      "bufferView": 1,
      "byteOffset": 336
    },
    {
      "name": "KJG001_1_1_texcoords",
      "componentType": 5126,
      "count": 92,
      "min": [
        0.010499999858438969,
        0.0005000000237487257
      ],
      "max": [
        0.9794999957084656,
        0.9894999861717224
      ],
      "type": "VEC2",
      "bufferView": 2,
      "byteOffset": 224
    },
    {
      "name": "KJG001_1_1_indices",
      "componentType": 5123,
      "count": 246,
      "min": [
        0
      ],
      "max": [
        91
      ],
      "type": "SCALAR",
      "bufferView": 3,
      "byteOffset": 156
    }
  ],
  "asset": {
    "generator": "obj2gltf",
    "version": "2.0"
  },
  "buffers": [
    {
      "name": "YJG",
      "byteLength": 138976,
      "uri": "data:application/octet-stream;base64,"
    }
  ],
  "bufferViews": [
    {
      "name": "bufferView_0",
      "buffer": 0,
      "byteLength": 1440,
      "byteOffset": 0,
      "byteStride": 12,
      "target": 34962
    },
    {
      "name": "bufferView_1",
      "buffer": 0,
      "byteLength": 1440,
      "byteOffset": 1440,
      "byteStride": 12,
      "target": 34962
    },
    {
      "name": "bufferView_2",
      "buffer": 0,
      "byteLength": 960,
      "byteOffset": 2880,
      "byteStride": 8,
      "target": 34962
    },
    {
      "name": "bufferView_3",
      "buffer": 0,
      "byteLength": 648,
      "byteOffset": 3840,
      "target": 34963
    },
    {
      "buffer": 0,
      "byteOffset": 4488,
      "byteLength": 120098
    },
    {
      "buffer": 0,
      "byteOffset": 124586,
      "byteLength": 14389
    }
  ],
  "images": [
    {
      "name": "YWJGMA002",
      "mimeType": "image/jpeg",
      "bufferView": 4
    },
    {
      "name": "YWJGMA003",
      "mimeType": "image/jpeg",
      "bufferView": 5
    }
  ],
  "materials": [
    {
      "name": "Material__62",
      "pbrMetallicRoughness": {
        "baseColorTexture": {
          "index": 0
        },
        "baseColorFactor": [
          1,
          1,
          1,
          1
        ],
        "metallicFactor": 0,
        "roughnessFactor": 0.99
      },
      "emissiveFactor": [
        0,
        0,
        0
      ],
      "alphaMode": "OPAQUE",
      "doubleSided": false
    },
    {
      "name": "Material__49",
      "pbrMetallicRoughness": {
        "baseColorTexture": {
          "index": 1
        },
        "baseColorFactor": [
          1,
          1,
          1,
          1
        ],
        "metallicFactor": 0,
        "roughnessFactor": 0.99
      },
      "emissiveFactor": [
        0,
        0,
        0
      ],
      "alphaMode": "OPAQUE",
      "doubleSided": false
    }
  ],
  "meshes": [
    {
      "name": "KJG001_1",
      "primitives": [
        {
          "attributes": {
            "POSITION": 0,
            "NORMAL": 1,
            "TEXCOORD_0": 2
          },
          "indices": 3,
          "material": 0,
          "mode": 4
        },
        {
          "attributes": {
            "POSITION": 4,
            "NORMAL": 5,
            "TEXCOORD_0": 6
          },
          "indices": 7,
          "material": 1,
          "mode": 4
        }
      ]
    }
  ],
  "nodes": [
    {
      "name": "KJG001",
      "mesh": 0
    }
  ],
  "samplers": [
    {
      "magFilter": 9729,
      "minFilter": 9986,
      "wrapS": 10497,
      "wrapT": 10497
    }
  ],
  "scene": 0,
  "scenes": [
    {
      "nodes": [
        0
      ]
    }
  ],
  "textures": [
    {
      "name": "YWJGMA002",
      "sampler": 0,
      "source": 0
    },
    {
      "name": "YWJGMA003",
      "sampler": 0,
      "source": 1
    }
  ]
}
