{
  "accessors": [
    {
      "name": "1120XJ02_1_0_positions",
      "componentType": 5126,
      "count": 1546,
      "min": [
        -0.10679999738931656,
        0,
        -0.10679999738931656
      ],
      "max": [
        0.10679999738931656,
        0.31139999628067017,
        0.10679999738931656
      ],
      "type": "VEC3",
      "bufferView": 0,
      "byteOffset": 0
    },
    {
      "name": "1120XJ02_1_0_normals",
      "componentType": 5126,
      "count": 1546,
      "min": [
        -1,
        -1,
        -1
      ],
      "max": [
        1,
        1,
        1
      ],
      "type": "VEC3",
      "bufferView": 1,
      "byteOffset": 0
    },
    {
      "name": "1120XJ02_1_0_texcoords",
      "componentType": 5126,
      "count": 1546,
      "min": [
        -0.746999979019165,
        -0.746999979019165
      ],
      "max": [
        1.746999979019165,
        3.173099994659424
      ],
      "type": "VEC2",
      "bufferView": 2,
      "byteOffset": 0
    },
    {
      "name": "1120XJ02_1_0_indices",
      "componentType": 5123,
      "count": 5046,
      "min": [
        0
      ],
      "max": [
        1545
      ],
      "type": "SCALAR",
      "bufferView": 3,
      "byteOffset": 0
    },
    {
      "name": "1120XJ02_1_1_positions",
      "componentType": 5126,
      "count": 10,
      "min": [
        0.09679999947547913,
        0.18170000612735748,
        -0.04089999943971634
      ],
      "max": [
        0.10679999738931656,
        0.2062000036239624,
        0.04089999943971634
      ],
      "type": "VEC3",
      "bufferView": 0,
      "byteOffset": 18552
    },
    {
      "name": "1120XJ02_1_1_normals",
      "componentType": 5126,
      "count": 10,
      "min": [
        0.9109380841255188,
        0.08369924873113632,
        -0.3813191056251526
      ],
      "max": [
        0.9964910745620728,
        0.16680698096752167,
        0.3813191056251526
      ],
      "type": "VEC3",
      "bufferView": 1,
      "byteOffset": 18552
    },
    {
      "name": "1120XJ02_1_1_texcoords",
      "componentType": 5126,
      "count": 10,
      "min": [
        -0.0885000005364418,
        0.03449999913573265
      ],
      "max": [
        1.0885000228881836,
        0.6973000168800354
      ],
      "type": "VEC2",
      "bufferView": 2,
      "byteOffset": 12368
    },
    {
      "name": "1120XJ02_1_1_indices",
      "componentType": 5123,
      "count": 24,
      "min": [
        0
      ],
      "max": [
        9
      ],
      "type": "SCALAR",
      "bufferView": 3,
      "byteOffset": 10092
    },
    {
      "name": "1120XJ02_1_2_positions",
      "componentType": 5126,
      "count": 26,
      "min": [
        0.05990000069141388,
        0.026399999856948853,
        -0.052299998700618744
      ],
      "max": [
        0.05990000069141388,
        0.13259999454021454,
        0.05310000106692314
      ],
      "type": "VEC3",
      "bufferView": 0,
      "byteOffset": 18672
    },
    {
      "name": "1120XJ02_1_2_normals",
      "componentType": 5126,
      "count": 26,
      "min": [
        1,
        0,
        0
      ],
      "max": [
        1,
        0,
        0
      ],
      "type": "VEC3",
      "bufferView": 1,
      "byteOffset": 18672
    },
    {
      "name": "1120XJ02_1_2_texcoords",
      "componentType": 5126,
      "count": 26,
      "min": [
        0.0005000000237487257,
        0.0005000000237487257
      ],
      "max": [
        0.9994999766349792,
        0.9994999766349792
      ],
      "type": "VEC2",
      "bufferView": 2,
      "byteOffset": 12448
    },
    {
      "name": "1120XJ02_1_2_indices",
      "componentType": 5123,
      "count": 72,
      "min": [
        0
      ],
      "max": [
        25
      ],
      "type": "SCALAR",
      "bufferView": 3,
      "byteOffset": 10140
    }
  ],
  "asset": {
    "generator": "obj2gltf",
    "version": "2.0"
  },
  "buffers": [
    {
      "name": "1120XJ02",
      "byteLength": 156296,
      "uri": "data:application/octet-stream;base64,"
    }
  ],
  "bufferViews": [
    {
      "name": "bufferView_0",
      "buffer": 0,
      "byteLength": 18984,
      "byteOffset": 0,
      "byteStride": 12,
      "target": 34962
    },
    {
      "name": "bufferView_1",
      "buffer": 0,
      "byteLength": 18984,
      "byteOffset": 18984,
      "byteStride": 12,
      "target": 34962
    },
    {
      "name": "bufferView_2",
      "buffer": 0,
      "byteLength": 12656,
      "byteOffset": 37968,
      "byteStride": 8,
      "target": 34962
    },
    {
      "name": "bufferView_3",
      "buffer": 0,
      "byteLength": 10284,
      "byteOffset": 50624,
      "target": 34963
    },
    {
      "buffer": 0,
      "byteOffset": 60908,
      "byteLength": 12869
    },
    {
      "buffer": 0,
      "byteOffset": 73777,
      "byteLength": 24862
    },
    {
      "buffer": 0,
      "byteOffset": 98639,
      "byteLength": 57657
    }
  ],
  "images": [
    {
      "name": "MASXT0001",
      "mimeType": "image/jpeg",
      "bufferView": 4
    },
    {
      "name": "MASXT0004",
      "mimeType": "image/jpeg",
      "bufferView": 5
    },
    {
      "name": "MASXT0009",
      "mimeType": "image/jpeg",
      "bufferView": 6
    }
  ],
  "materials": [
    {
      "name": "000005",
      "pbrMetallicRoughness": {
        "baseColorTexture": {
          "index": 0
        },
        "baseColorFactor": [
          1,
          1,
          1,
          1
        ],
        "metallicFactor": 0,
        "roughnessFactor": 0.99
      },
      "emissiveFactor": [
        0,
        0,
        0
      ],
      "alphaMode": "OPAQUE",
      "doubleSided": false
    },
    {
      "name": "000007",
      "pbrMetallicRoughness": {
        "baseColorTexture": {
          "index": 1
        },
        "baseColorFactor": [
          1,
          1,
          1,
          1
        ],
        "metallicFactor": 0,
        "roughnessFactor": 0.99
      },
      "emissiveFactor": [
        0,
        0,
        0
      ],
      "alphaMode": "OPAQUE",
      "doubleSided": false
    },
    {
      "name": "Material__86",
      "pbrMetallicRoughness": {
        "baseColorTexture": {
          "index": 2
        },
        "baseColorFactor": [
          1,
          1,
          1,
          1
        ],
        "metallicFactor": 0,
        "roughnessFactor": 0.99
      },
      "emissiveFactor": [
        0,
        0,
        0
      ],
      "alphaMode": "OPAQUE",
      "doubleSided": false
    }
  ],
  "meshes": [
    {
      "name": "1120XJ02_1",
      "primitives": [
        {
          "attributes": {
            "POSITION": 0,
            "NORMAL": 1,
            "TEXCOORD_0": 2
          },
          "indices": 3,
          "material": 0,
          "mode": 4
        },
        {
          "attributes": {
            "POSITION": 4,
            "NORMAL": 5,
            "TEXCOORD_0": 6
          },
          "indices": 7,
          "material": 1,
          "mode": 4
        },
        {
          "attributes": {
            "POSITION": 8,
            "NORMAL": 9,
            "TEXCOORD_0": 10
          },
          "indices": 11,
          "material": 2,
          "mode": 4
        }
      ]
    }
  ],
  "nodes": [
    {
      "name": "1120XJ02",
      "mesh": 0
    }
  ],
  "samplers": [
    {
      "magFilter": 9729,
      "minFilter": 9986,
      "wrapS": 10497,
      "wrapT": 10497
    }
  ],
  "scene": 0,
  "scenes": [
    {
      "nodes": [
        0
      ]
    }
  ],
  "textures": [
    {
      "name": "MASXT0001",
      "sampler": 0,
      "source": 0
    },
    {
      "name": "MASXT0004",
      "sampler": 0,
      "source": 1
    },
    {
      "name": "MASXT0009",
      "sampler": 0,
      "source": 2
    }
  ]
}
