{
  "accessors": [
    {
      "name": "BQ001_1_0_positions",
      "componentType": 5126,
      "count": 402,
      "min": [
        -13.10830020904541,
        0.7014999985694885,
        -13.10830020904541
      ],
      "max": [
        13.10830020904541,
        16.881799697875977,
        13.10830020904541
      ],
      "type": "VEC3",
      "bufferView": 0,
      "byteOffset": 0
    },
    {
      "name": "BQ001_1_0_normals",
      "componentType": 5126,
      "count": 402,
      "min": [
        -1,
        -1,
        -1
      ],
      "max": [
        1,
        1,
        1
      ],
      "type": "VEC3",
      "bufferView": 1,
      "byteOffset": 0
    },
    {
      "name": "BQ001_1_0_texcoords",
      "componentType": 5126,
      "count": 402,
      "min": [
        0.0005000000237487257,
        -2.0394999980926514
      ],
      "max": [
        0.9994999766349792,
        0.9994999766349792
      ],
      "type": "VEC2",
      "bufferView": 2,
      "byteOffset": 0
    },
    {
      "name": "BQ001_1_0_indices",
      "componentType": 5123,
      "count": 1092,
      "min": [
        0
      ],
      "max": [
        401
      ],
      "type": "SCALAR",
      "bufferView": 3,
      "byteOffset": 0
    },
    {
      "name": "BQ001_1_1_positions",
      "componentType": 5126,
      "count": 8,
      "min": [
        10.094799995422363,
        9.89050006866455,
        -6.554100036621094
      ],
      "max": [
        13.10830020904541,
        12.485199928283691,
        3.392699956893921
      ],
      "type": "VEC3",
      "bufferView": 0,
      "byteOffset": 4824
    },
    {
      "name": "BQ001_1_1_normals",
      "componentType": 5126,
      "count": 8,
      "min": [
        0.7557893395423889,
        -0.48831266164779663,
        -0.48450329899787903
      ],
      "max": [
        0.968936562538147,
        -0.24730168282985687,
        0.2508041560649872
      ],
      "type": "VEC3",
      "bufferView": 1,
      "byteOffset": 4824
    },
    {
      "name": "BQ001_1_1_texcoords",
      "componentType": 5126,
      "count": 8,
      "min": [
        0.0005000000237487257,
        0.0005000000237487257
      ],
      "max": [
        0.9994999766349792,
        0.9994999766349792
      ],
      "type": "VEC2",
      "bufferView": 2,
      "byteOffset": 3216
    },
    {
      "name": "BQ001_1_1_indices",
      "componentType": 5123,
      "count": 18,
      "min": [
        0
      ],
      "max": [
        7
      ],
      "type": "SCALAR",
      "bufferView": 3,
      "byteOffset": 2184
    },
    {
      "name": "BQ001_1_2_positions",
      "componentType": 5126,
      "count": 70,
      "min": [
        1.9047000408172607,
        1.0157999992370605,
        -7.3592000007629395
      ],
      "max": [
        10.407500267028809,
        9.907899856567383,
        7.3592000007629395
      ],
      "type": "VEC3",
      "bufferView": 0,
      "byteOffset": 4920
    },
    {
      "name": "BQ001_1_2_normals",
      "componentType": 5126,
      "count": 70,
      "min": [
        0.17049908638000488,
        -0.97049480676651,
        -0.6993192434310913
      ],
      "max": [
        0.882242739200592,
        -0.14800406992435455,
        0.603168249130249
      ],
      "type": "VEC3",
      "bufferView": 1,
      "byteOffset": 4920
    },
    {
      "name": "BQ001_1_2_texcoords",
      "componentType": 5126,
      "count": 70,
      "min": [
        -0.010099999606609344,
        -0.04749999940395355
      ],
      "max": [
        1.01010000705719,
        1.0475000143051147
      ],
      "type": "VEC2",
      "bufferView": 2,
      "byteOffset": 3280
    },
    {
      "name": "BQ001_1_2_indices",
      "componentType": 5123,
      "count": 180,
      "min": [
        0
      ],
      "max": [
        69
      ],
      "type": "SCALAR",
      "bufferView": 3,
      "byteOffset": 2220
    },
    {
      "name": "BQ001_1_3_positions",
      "componentType": 5126,
      "count": 185,
      "min": [
        -11.192099571228027,
        0,
        -11.192099571228027
      ],
      "max": [
        11.192099571228027,
        10.037799835205078,
        11.192099571228027
      ],
      "type": "VEC3",
      "bufferView": 0,
      "byteOffset": 5760
    },
    {
      "name": "BQ001_1_3_normals",
      "componentType": 5126,
      "count": 185,
      "min": [
        -0.9903905391693115,
        -1,
        -0.9903905391693115
      ],
      "max": [
        0.9903905391693115,
        -0.13829867541790009,
        0.9903905391693115
      ],
      "type": "VEC3",
      "bufferView": 1,
      "byteOffset": 5760
    },
    {
      "name": "BQ001_1_3_texcoords",
      "componentType": 5126,
      "count": 185,
      "min": [
        0.18459999561309814,
        0.5
      ],
      "max": [
        0.8154000043869019,
        0.8730999827384949
      ],
      "type": "VEC2",
      "bufferView": 2,
      "byteOffset": 3840
    },
    {
      "name": "BQ001_1_3_indices",
      "componentType": 5123,
      "count": 792,
      "min": [
        0
      ],
      "max": [
        184
      ],
      "type": "SCALAR",
      "bufferView": 3,
      "byteOffset": 2580
    }
  ],
  "asset": {
    "generator": "obj2gltf",
    "version": "2.0"
  },
  "buffers": [
    {
      "name": "BQ001",
      "byteLength": 566052,
      "uri": "data:application/octet-stream;base64,"
    }
  ],
  "bufferViews": [
    {
      "name": "bufferView_0",
      "buffer": 0,
      "byteLength": 7980,
      "byteOffset": 0,
      "byteStride": 12,
      "target": 34962
    },
    {
      "name": "bufferView_1",
      "buffer": 0,
      "byteLength": 7980,
      "byteOffset": 7980,
      "byteStride": 12,
      "target": 34962
    },
    {
      "name": "bufferView_2",
      "buffer": 0,
      "byteLength": 5320,
      "byteOffset": 15960,
      "byteStride": 8,
      "target": 34962
    },
    {
      "name": "bufferView_3",
      "buffer": 0,
      "byteLength": 4164,
      "byteOffset": 21280,
      "target": 34963
    },
    {
      "buffer": 0,
      "byteOffset": 25444,
      "byteLength": 81832
    },
    {
      "buffer": 0,
      "byteOffset": 107276,
      "byteLength": 259716
    },
    {
      "buffer": 0,
      "byteOffset": 366992,
      "byteLength": 108636
    },
    {
      "buffer": 0,
      "byteOffset": 475628,
      "byteLength": 90424
    }
  ],
  "images": [
    {
      "name": "MASXT0005",
      "mimeType": "image/tiff",
      "bufferView": 4
    },
    {
      "name": "MASXT0007",
      "mimeType": "image/tiff",
      "bufferView": 5
    },
    {
      "name": "MASXT0006",
      "mimeType": "image/tiff",
      "bufferView": 6
    },
    {
      "name": "MASXT0008",
      "mimeType": "image/tiff",
      "bufferView": 7
    }
  ],
  "materials": [
    {
      "name": "Material__28",
      "pbrMetallicRoughness": {
        "baseColorTexture": {
          "index": 0
        },
        "baseColorFactor": [
          1,
          1,
          1,
          1
        ],
        "metallicFactor": 0,
        "roughnessFactor": 0.99
      },
      "emissiveFactor": [
        0,
        0,
        0
      ],
      "alphaMode": "OPAQUE",
      "doubleSided": false
    },
    {
      "name": "Material__47",
      "pbrMetallicRoughness": {
        "baseColorTexture": {
          "index": 1
        },
        "baseColorFactor": [
          1,
          1,
          1,
          1
        ],
        "metallicFactor": 0,
        "roughnessFactor": 0.99
      },
      "emissiveFactor": [
        0,
        0,
        0
      ],
      "alphaMode": "OPAQUE",
      "doubleSided": false
    },
    {
      "name": "Material__29",
      "pbrMetallicRoughness": {
        "baseColorTexture": {
          "index": 2
        },
        "baseColorFactor": [
          1,
          1,
          1,
          1
        ],
        "metallicFactor": 0,
        "roughnessFactor": 0.99
      },
      "emissiveFactor": [
        0,
        0,
        0
      ],
      "alphaMode": "OPAQUE",
      "doubleSided": false
    },
    {
      "name": "Material__59",
      "pbrMetallicRoughness": {
        "baseColorTexture": {
          "index": 3
        },
        "baseColorFactor": [
          1,
          1,
          1,
          1
        ],
        "metallicFactor": 0,
        "roughnessFactor": 0.99
      },
      "emissiveFactor": [
        0,
        0,
        0
      ],
      "alphaMode": "BLEND",
      "doubleSided": true
    }
  ],
  "meshes": [
    {
      "name": "BQ001_1",
      "primitives": [
        {
          "attributes": {
            "POSITION": 0,
            "NORMAL": 1,
            "TEXCOORD_0": 2
          },
          "indices": 3,
          "material": 0,
          "mode": 4
        },
        {
          "attributes": {
            "POSITION": 4,
            "NORMAL": 5,
            "TEXCOORD_0": 6
          },
          "indices": 7,
          "material": 1,
          "mode": 4
        },
        {
          "attributes": {
            "POSITION": 8,
            "NORMAL": 9,
            "TEXCOORD_0": 10
          },
          "indices": 11,
          "material": 2,
          "mode": 4
        },
        {
          "attributes": {
            "POSITION": 12,
            "NORMAL": 13,
            "TEXCOORD_0": 14
          },
          "indices": 15,
          "material": 3,
          "mode": 4
        }
      ]
    }
  ],
  "nodes": [
    {
      "name": "BQ001",
      "mesh": 0
    }
  ],
  "samplers": [
    {
      "magFilter": 9729,
      "minFilter": 9986,
      "wrapS": 10497,
      "wrapT": 10497
    }
  ],
  "scene": 0,
  "scenes": [
    {
      "nodes": [
        0
      ]
    }
  ],
  "textures": [
    {
      "name": "MASXT0005",
      "sampler": 0,
      "source": 0
    },
    {
      "name": "MASXT0007",
      "sampler": 0,
      "source": 1
    },
    {
      "name": "MASXT0006",
      "sampler": 0,
      "source": 2
    },
    {
      "name": "MASXT0008",
      "sampler": 0,
      "source": 3
    }
  ]
}
