{
  "accessors": [
    {
      "name": "HKMJBJQ001_1_0_positions",
      "componentType": 5126,
      "count": 32,
      "min": [
        -0.07000000029802322,
        0,
        -0.019999999552965164
      ],
      "max": [
        0.07000000029802322,
        0.33000001311302185,
        0.019999999552965164
      ],
      "type": "VEC3",
      "bufferView": 0,
      "byteOffset": 0
    },
    {
      "name": "HKMJBJQ001_1_0_normals",
      "componentType": 5126,
      "count": 32,
      "min": [
        -1,
        -1,
        -1
      ],
      "max": [
        1,
        1,
        1
      ],
      "type": "VEC3",
      "bufferView": 1,
      "byteOffset": 0
    },
    {
      "name": "HKMJBJQ001_1_0_texcoords",
      "componentType": 5126,
      "count": 32,
      "min": [
        0,
        0.6833000183105469
      ],
      "max": [
        1,
        1
      ],
      "type": "VEC2",
      "bufferView": 2,
      "byteOffset": 0
    },
    {
      "name": "HKMJBJQ001_1_0_indices",
      "componentType": 5123,
      "count": 60,
      "min": [
        0
      ],
      "max": [
        31
      ],
      "type": "SCALAR",
      "bufferView": 3,
      "byteOffset": 0
    },
    {
      "name": "HKMJBJQ001_1_1_positions",
      "componentType": 5126,
      "count": 12,
      "min": [
        -0.07000000029802322,
        0.10670000314712524,
        0.017500000074505806
      ],
      "max": [
        0.07000000029802322,
        0.33000001311302185,
        0.019999999552965164
      ],
      "type": "VEC3",
      "bufferView": 0,
      "byteOffset": 384
    },
    {
      "name": "HKMJBJQ001_1_1_normals",
      "componentType": 5126,
      "count": 12,
      "min": [
        0,
        0,
        0.9202175140380859
      ],
      "max": [
        0,
        0.39140743017196655,
        1
      ],
      "type": "VEC3",
      "bufferView": 1,
      "byteOffset": 384
    },
    {
      "name": "HKMJBJQ001_1_1_texcoords",
      "componentType": 5126,
      "count": 12,
      "min": [
        0.0005000000237487257,
        0.0005000000237487257
      ],
      "max": [
        0.9994999766349792,
        1.0099999904632568
      ],
      "type": "VEC2",
      "bufferView": 2,
      "byteOffset": 256
    },
    {
      "name": "HKMJBJQ001_1_1_indices",
      "componentType": 5123,
      "count": 24,
      "min": [
        0
      ],
      "max": [
        11
      ],
      "type": "SCALAR",
      "bufferView": 3,
      "byteOffset": 120
    }
  ],
  "asset": {
    "generator": "obj2gltf",
    "version": "2.0"
  },
  "buffers": [
    {
      "name": "HKMJBJQ001",
      "byteLength": 50244,
      "uri": "data:application/octet-stream;base64,"
    }
  ],
  "bufferViews": [
    {
      "name": "bufferView_0",
      "buffer": 0,
      "byteLength": 528,
      "byteOffset": 0,
      "byteStride": 12,
      "target": 34962
    },
    {
      "name": "bufferView_1",
      "buffer": 0,
      "byteLength": 528,
      "byteOffset": 528,
      "byteStride": 12,
      "target": 34962
    },
    {
      "name": "bufferView_2",
      "buffer": 0,
      "byteLength": 352,
      "byteOffset": 1056,
      "byteStride": 8,
      "target": 34962
    },
    {
      "name": "bufferView_3",
      "buffer": 0,
      "byteLength": 168,
      "byteOffset": 1408,
      "target": 34963
    },
    {
      "buffer": 0,
      "byteOffset": 1576,
      "byteLength": 23456
    },
    {
      "buffer": 0,
      "byteOffset": 25032,
      "byteLength": 25212
    }
  ],
  "images": [
    {
      "name": "LQM0005",
      "mimeType": "image/jpeg",
      "bufferView": 4
    },
    {
      "name": "LQM0006",
      "mimeType": "image/jpeg",
      "bufferView": 5
    }
  ],
  "materials": [
    {
      "name": "Material__10712",
      "pbrMetallicRoughness": {
        "baseColorTexture": {
          "index": 0
        },
        "baseColorFactor": [
          1,
          1,
          1,
          1
        ],
        "metallicFactor": 0,
        "roughnessFactor": 0.99
      },
      "emissiveFactor": [
        0,
        0,
        0
      ],
      "alphaMode": "OPAQUE",
      "doubleSided": false
    },
    {
      "name": "Material__10724",
      "pbrMetallicRoughness": {
        "baseColorTexture": {
          "index": 1
        },
        "baseColorFactor": [
          1,
          1,
          1,
          1
        ],
        "metallicFactor": 0,
        "roughnessFactor": 0.99
      },
      "emissiveFactor": [
        0,
        0,
        0
      ],
      "alphaMode": "OPAQUE",
      "doubleSided": false
    }
  ],
  "meshes": [
    {
      "name": "HKMJBJQ001_1",
      "primitives": [
        {
          "attributes": {
            "POSITION": 0,
            "NORMAL": 1,
            "TEXCOORD_0": 2
          },
          "indices": 3,
          "material": 0,
          "mode": 4
        },
        {
          "attributes": {
            "POSITION": 4,
            "NORMAL": 5,
            "TEXCOORD_0": 6
          },
          "indices": 7,
          "material": 1,
          "mode": 4
        }
      ]
    }
  ],
  "nodes": [
    {
      "name": "HKMJBJQ001",
      "mesh": 0
    }
  ],
  "samplers": [
    {
      "magFilter": 9729,
      "minFilter": 9986,
      "wrapS": 10497,
      "wrapT": 10497
    }
  ],
  "scene": 0,
  "scenes": [
    {
      "nodes": [
        0
      ]
    }
  ],
  "textures": [
    {
      "name": "LQM0005",
      "sampler": 0,
      "source": 0
    },
    {
      "name": "LQM0006",
      "sampler": 0,
      "source": 1
    }
  ]
}
