{
  "accessors": [
    {
      "name": "QJ001_1_0_positions",
      "componentType": 5126,
      "count": 172,
      "min": [
        -0.0868000015616417,
        0.001500000013038516,
        -0.26750001311302185
      ],
      "max": [
        0.07999999821186066,
        0.19429999589920044,
        0.125
      ],
      "type": "VEC3",
      "bufferView": 0,
      "byteOffset": 0
    },
    {
      "name": "QJ001_1_0_normals",
      "componentType": 5126,
      "count": 172,
      "min": [
        -1,
        -0.990376889705658,
        -0.990376889705658
      ],
      "max": [
        1,
        0.982495903968811,
        0.990376889705658
      ],
      "type": "VEC3",
      "bufferView": 1,
      "byteOffset": 0
    },
    {
      "name": "QJ001_1_0_texcoords",
      "componentType": 5126,
      "count": 172,
      "min": [
        -1.0432000160217285,
        -1.0432000160217285
      ],
      "max": [
        2.0432000160217285,
        2.0432000160217285
      ],
      "type": "VEC2",
      "bufferView": 2,
      "byteOffset": 0
    },
    {
      "name": "QJ001_1_0_indices",
      "componentType": 5123,
      "count": 378,
      "min": [
        0
      ],
      "max": [
        171
      ],
      "type": "SCALAR",
      "bufferView": 3,
      "byteOffset": 0
    },
    {
      "name": "QJ001_1_1_positions",
      "componentType": 5126,
      "count": 12,
      "min": [
        -0.07320000231266022,
        0.016499999910593033,
        -0.23420000076293945
      ],
      "max": [
        0.06639999896287918,
        0.12970000505447388,
        -0.218299999833107
      ],
      "type": "VEC3",
      "bufferView": 0,
      "byteOffset": 2064
    },
    {
      "name": "QJ001_1_1_normals",
      "componentType": 5126,
      "count": 12,
      "min": [
        0,
        -0.13839676976203918,
        -0.990376889705658
      ],
      "max": [
        0,
        -0.13839676976203918,
        -0.990376889705658
      ],
      "type": "VEC3",
      "bufferView": 1,
      "byteOffset": 2064
    },
    {
      "name": "QJ001_1_1_texcoords",
      "componentType": 5126,
      "count": 12,
      "min": [
        0.0005000000237487257,
        0.0005000000237487257
      ],
      "max": [
        0.9994999766349792,
        0.9994999766349792
      ],
      "type": "VEC2",
      "bufferView": 2,
      "byteOffset": 1376
    },
    {
      "name": "QJ001_1_1_indices",
      "componentType": 5123,
      "count": 30,
      "min": [
        0
      ],
      "max": [
        11
      ],
      "type": "SCALAR",
      "bufferView": 3,
      "byteOffset": 756
    },
    {
      "name": "QJ001_1_2_positions",
      "componentType": 5126,
      "count": 12,
      "min": [
        -0.0868000015616417,
        0.10790000110864639,
        -0.07769999653100967
      ],
      "max": [
        0.07999999821186066,
        0.17579999566078186,
        0.1152999997138977
      ],
      "type": "VEC3",
      "bufferView": 0,
      "byteOffset": 2208
    },
    {
      "name": "QJ001_1_2_normals",
      "componentType": 5126,
      "count": 12,
      "min": [
        -0.9842646718025208,
        0.17499372363090515,
        -0.08880410343408585
      ],
      "max": [
        0.9842646718025208,
        0.6354293823242188,
        -0.02449912205338478
      ],
      "type": "VEC3",
      "bufferView": 1,
      "byteOffset": 2208
    },
    {
      "name": "QJ001_1_2_texcoords",
      "componentType": 5126,
      "count": 12,
      "min": [
        0.0005000000237487257,
        0.0005000000237487257
      ],
      "max": [
        0.9994999766349792,
        0.9994999766349792
      ],
      "type": "VEC2",
      "bufferView": 2,
      "byteOffset": 1472
    },
    {
      "name": "QJ001_1_2_indices",
      "componentType": 5123,
      "count": 24,
      "min": [
        0
      ],
      "max": [
        11
      ],
      "type": "SCALAR",
      "bufferView": 3,
      "byteOffset": 816
    },
    {
      "name": "QJ001_1_3_positions",
      "componentType": 5126,
      "count": 16,
      "min": [
        -0.0868000015616417,
        0.08179999887943268,
        -0.26489999890327454
      ],
      "max": [
        0.07999999821186066,
        0.14959999918937683,
        -0.07190000265836716
      ],
      "type": "VEC3",
      "bufferView": 0,
      "byteOffset": 2352
    },
    {
      "name": "QJ001_1_3_normals",
      "componentType": 5126,
      "count": 16,
      "min": [
        -0.9842646718025208,
        0.17499372363090515,
        -0.08880410343408585
      ],
      "max": [
        0.9842646718025208,
        0.6354293823242188,
        -0.02449912205338478
      ],
      "type": "VEC3",
      "bufferView": 1,
      "byteOffset": 2352
    },
    {
      "name": "QJ001_1_3_texcoords",
      "componentType": 5126,
      "count": 16,
      "min": [
        -1.0432000160217285,
        -1.0432000160217285
      ],
      "max": [
        2.0432000160217285,
        0.5
      ],
      "type": "VEC2",
      "bufferView": 2,
      "byteOffset": 1568
    },
    {
      "name": "QJ001_1_3_indices",
      "componentType": 5123,
      "count": 24,
      "min": [
        0
      ],
      "max": [
        15
      ],
      "type": "SCALAR",
      "bufferView": 3,
      "byteOffset": 864
    }
  ],
  "asset": {
    "generator": "obj2gltf",
    "version": "2.0"
  },
  "buffers": [
    {
      "name": "QJ",
      "byteLength": 46424,
      "uri": "data:application/octet-stream;base64,"
    }
  ],
  "bufferViews": [
    {
      "name": "bufferView_0",
      "buffer": 0,
      "byteLength": 2544,
      "byteOffset": 0,
      "byteStride": 12,
      "target": 34962
    },
    {
      "name": "bufferView_1",
      "buffer": 0,
      "byteLength": 2544,
      "byteOffset": 2544,
      "byteStride": 12,
      "target": 34962
    },
    {
      "name": "bufferView_2",
      "buffer": 0,
      "byteLength": 1696,
      "byteOffset": 5088,
      "byteStride": 8,
      "target": 34962
    },
    {
      "name": "bufferView_3",
      "buffer": 0,
      "byteLength": 912,
      "byteOffset": 6784,
      "target": 34963
    },
    {
      "buffer": 0,
      "byteOffset": 7696,
      "byteLength": 10272
    },
    {
      "buffer": 0,
      "byteOffset": 17968,
      "byteLength": 9681
    },
    {
      "buffer": 0,
      "byteOffset": 27649,
      "byteLength": 18774
    }
  ],
  "images": [
    {
      "name": "309059",
      "mimeType": "image/png",
      "bufferView": 4
    },
    {
      "name": "SXT02",
      "mimeType": "image/png",
      "bufferView": 5
    },
    {
      "name": "HIK001",
      "mimeType": "image/png",
      "bufferView": 6
    }
  ],
  "materials": [
    {
      "name": "Material__28",
      "pbrMetallicRoughness": {
        "baseColorTexture": {
          "index": 0
        },
        "baseColorFactor": [
          1,
          1,
          1,
          1
        ],
        "metallicFactor": 0,
        "roughnessFactor": 0.99
      },
      "emissiveFactor": [
        0,
        0,
        0
      ],
      "alphaMode": "OPAQUE",
      "doubleSided": false
    },
    {
      "name": "Material__75",
      "pbrMetallicRoughness": {
        "baseColorTexture": {
          "index": 1
        },
        "baseColorFactor": [
          1,
          1,
          1,
          1
        ],
        "metallicFactor": 0,
        "roughnessFactor": 0.99
      },
      "emissiveFactor": [
        0,
        0,
        0
      ],
      "alphaMode": "OPAQUE",
      "doubleSided": false
    },
    {
      "name": "Material__45",
      "pbrMetallicRoughness": {
        "baseColorTexture": {
          "index": 2
        },
        "baseColorFactor": [
          1,
          1,
          1,
          1
        ],
        "metallicFactor": 0,
        "roughnessFactor": 0.99
      },
      "emissiveFactor": [
        0,
        0,
        0
      ],
      "alphaMode": "OPAQUE",
      "doubleSided": false
    },
    {
      "name": "Material__43",
      "pbrMetallicRoughness": {
        "baseColorTexture": {
          "index": 2
        },
        "baseColorFactor": [
          1,
          1,
          1,
          1
        ],
        "metallicFactor": 0,
        "roughnessFactor": 0.99
      },
      "emissiveFactor": [
        0,
        0,
        0
      ],
      "alphaMode": "OPAQUE",
      "doubleSided": false
    }
  ],
  "meshes": [
    {
      "name": "QJ001_1",
      "primitives": [
        {
          "attributes": {
            "POSITION": 0,
            "NORMAL": 1,
            "TEXCOORD_0": 2
          },
          "indices": 3,
          "material": 0,
          "mode": 4
        },
        {
          "attributes": {
            "POSITION": 4,
            "NORMAL": 5,
            "TEXCOORD_0": 6
          },
          "indices": 7,
          "material": 1,
          "mode": 4
        },
        {
          "attributes": {
            "POSITION": 8,
            "NORMAL": 9,
            "TEXCOORD_0": 10
          },
          "indices": 11,
          "material": 2,
          "mode": 4
        },
        {
          "attributes": {
            "POSITION": 12,
            "NORMAL": 13,
            "TEXCOORD_0": 14
          },
          "indices": 15,
          "material": 3,
          "mode": 4
        }
      ]
    }
  ],
  "nodes": [
    {
      "name": "QJ001",
      "mesh": 0
    }
  ],
  "samplers": [
    {
      "magFilter": 9729,
      "minFilter": 9986,
      "wrapS": 10497,
      "wrapT": 10497
    }
  ],
  "scene": 0,
  "scenes": [
    {
      "nodes": [
        0
      ]
    }
  ],
  "textures": [
    {
      "name": "309059",
      "sampler": 0,
      "source": 0
    },
    {
      "name": "SXT02",
      "sampler": 0,
      "source": 1
    },
    {
      "name": "HIK001",
      "sampler": 0,
      "source": 2
    }
  ]
}
