{
  "accessors": [
    {
      "name": "QJ002_1_0_positions",
      "componentType": 5126,
      "count": 766,
      "min": [
        -10.680399894714355,
        18.172700881958008,
        -10.680399894714355
      ],
      "max": [
        10.680399894714355,
        31.1382999420166,
        10.680299758911133
      ],
      "type": "VEC3",
      "bufferView": 0,
      "byteOffset": 0
    },
    {
      "name": "QJ002_1_0_normals",
      "componentType": 5126,
      "count": 766,
      "min": [
        -0.9964910745620728,
        -1,
        -0.9964910745620728
      ],
      "max": [
        0.9859910011291504,
        1,
        0.9964910745620728
      ],
      "type": "VEC3",
      "bufferView": 1,
      "byteOffset": 0
    },
    {
      "name": "QJ002_1_0_texcoords",
      "componentType": 5126,
      "count": 766,
      "min": [
        -0.746999979019165,
        -0.746999979019165
      ],
      "max": [
        1.746999979019165,
        1.746999979019165
      ],
      "type": "VEC2",
      "bufferView": 2,
      "byteOffset": 0
    },
    {
      "name": "QJ002_1_0_indices",
      "componentType": 5123,
      "count": 2394,
      "min": [
        0
      ],
      "max": [
        765
      ],
      "type": "SCALAR",
      "bufferView": 3,
      "byteOffset": 0
    },
    {
      "name": "QJ002_1_1_positions",
      "componentType": 5126,
      "count": 10,
      "min": [
        9.677800178527832,
        18.172700881958008,
        -4.087200164794922
      ],
      "max": [
        10.680399894714355,
        20.615800857543945,
        4.087200164794922
      ],
      "type": "VEC3",
      "bufferView": 0,
      "byteOffset": 9192
    },
    {
      "name": "QJ002_1_1_normals",
      "componentType": 5126,
      "count": 10,
      "min": [
        0.9109380841255188,
        0.08369924873113632,
        -0.3813191056251526
      ],
      "max": [
        0.9964910745620728,
        0.16680698096752167,
        0.3813191056251526
      ],
      "type": "VEC3",
      "bufferView": 1,
      "byteOffset": 9192
    },
    {
      "name": "QJ002_1_1_texcoords",
      "componentType": 5126,
      "count": 10,
      "min": [
        -0.0885000005364418,
        0.03449999913573265
      ],
      "max": [
        1.0885000228881836,
        0.6973000168800354
      ],
      "type": "VEC2",
      "bufferView": 2,
      "byteOffset": 6128
    },
    {
      "name": "QJ002_1_1_indices",
      "componentType": 5123,
      "count": 24,
      "min": [
        0
      ],
      "max": [
        9
      ],
      "type": "SCALAR",
      "bufferView": 3,
      "byteOffset": 4788
    },
    {
      "name": "QJ002_1_2_positions",
      "componentType": 5126,
      "count": 852,
      "min": [
        -10.32960033416748,
        0,
        -10.32960033416748
      ],
      "max": [
        10.32960033416748,
        41.132301330566406,
        10.32960033416748
      ],
      "type": "VEC3",
      "bufferView": 0,
      "byteOffset": 9312
    },
    {
      "name": "QJ002_1_2_normals",
      "componentType": 5126,
      "count": 852,
      "min": [
        -1,
        -1,
        -1
      ],
      "max": [
        1,
        1,
        1
      ],
      "type": "VEC3",
      "bufferView": 1,
      "byteOffset": 9312
    },
    {
      "name": "QJ002_1_2_texcoords",
      "componentType": 5126,
      "count": 852,
      "min": [
        -0.5206000208854675,
        -0.7060999870300293
      ],
      "max": [
        1.5205999612808228,
        3.173099994659424
      ],
      "type": "VEC2",
      "bufferView": 2,
      "byteOffset": 6208
    },
    {
      "name": "QJ002_1_2_indices",
      "componentType": 5123,
      "count": 2844,
      "min": [
        0
      ],
      "max": [
        851
      ],
      "type": "SCALAR",
      "bufferView": 3,
      "byteOffset": 4836
    },
    {
      "name": "QJ002_1_3_positions",
      "componentType": 5126,
      "count": 26,
      "min": [
        5.991600036621094,
        2.6391000747680664,
        -5.232999801635742
      ],
      "max": [
        5.991600036621094,
        13.258999824523926,
        5.3094000816345215
      ],
      "type": "VEC3",
      "bufferView": 0,
      "byteOffset": 19536
    },
    {
      "name": "QJ002_1_3_normals",
      "componentType": 5126,
      "count": 26,
      "min": [
        1,
        0,
        0
      ],
      "max": [
        1,
        0,
        0
      ],
      "type": "VEC3",
      "bufferView": 1,
      "byteOffset": 19536
    },
    {
      "name": "QJ002_1_3_texcoords",
      "componentType": 5126,
      "count": 26,
      "min": [
        0.08060000091791153,
        0.06589999794960022
      ],
      "max": [
        0.8540999889373779,
        0.8393999934196472
      ],
      "type": "VEC2",
      "bufferView": 2,
      "byteOffset": 13024
    },
    {
      "name": "QJ002_1_3_indices",
      "componentType": 5123,
      "count": 72,
      "min": [
        0
      ],
      "max": [
        25
      ],
      "type": "SCALAR",
      "bufferView": 3,
      "byteOffset": 10524
    }
  ],
  "asset": {
    "generator": "obj2gltf",
    "version": "2.0"
  },
  "buffers": [
    {
      "name": "QJ002",
      "byteLength": 1007200,
      "uri": "data:application/octet-stream;base64,"
    }
  ],
  "bufferViews": [
    {
      "name": "bufferView_0",
      "buffer": 0,
      "byteLength": 19848,
      "byteOffset": 0,
      "byteStride": 12,
      "target": 34962
    },
    {
      "name": "bufferView_1",
      "buffer": 0,
      "byteLength": 19848,
      "byteOffset": 19848,
      "byteStride": 12,
      "target": 34962
    },
    {
      "name": "bufferView_2",
      "buffer": 0,
      "byteLength": 13232,
      "byteOffset": 39696,
      "byteStride": 8,
      "target": 34962
    },
    {
      "name": "bufferView_3",
      "buffer": 0,
      "byteLength": 10668,
      "byteOffset": 52928,
      "target": 34963
    },
    {
      "buffer": 0,
      "byteOffset": 63596,
      "byteLength": 61404
    },
    {
      "buffer": 0,
      "byteOffset": 125000,
      "byteLength": 610140
    },
    {
      "buffer": 0,
      "byteOffset": 735140,
      "byteLength": 60628
    },
    {
      "buffer": 0,
      "byteOffset": 795768,
      "byteLength": 211432
    }
  ],
  "images": [
    {
      "name": "MASXT0001",
      "mimeType": "image/tiff",
      "bufferView": 4
    },
    {
      "name": "MASXT0004",
      "mimeType": "image/tiff",
      "bufferView": 5
    },
    {
      "name": "MASXT0002",
      "mimeType": "image/tiff",
      "bufferView": 6
    },
    {
      "name": "MASXT0003",
      "mimeType": "image/tiff",
      "bufferView": 7
    }
  ],
  "materials": [
    {
      "name": "000005",
      "pbrMetallicRoughness": {
        "baseColorTexture": {
          "index": 0
        },
        "baseColorFactor": [
          1,
          1,
          1,
          1
        ],
        "metallicFactor": 0,
        "roughnessFactor": 0.99
      },
      "emissiveFactor": [
        0,
        0,
        0
      ],
      "alphaMode": "OPAQUE",
      "doubleSided": false
    },
    {
      "name": "000007",
      "pbrMetallicRoughness": {
        "baseColorTexture": {
          "index": 1
        },
        "baseColorFactor": [
          1,
          1,
          1,
          1
        ],
        "metallicFactor": 0,
        "roughnessFactor": 0.99
      },
      "emissiveFactor": [
        0,
        0,
        0
      ],
      "alphaMode": "OPAQUE",
      "doubleSided": false
    },
    {
      "name": "000003",
      "pbrMetallicRoughness": {
        "baseColorTexture": {
          "index": 2
        },
        "baseColorFactor": [
          1,
          1,
          1,
          1
        ],
        "metallicFactor": 0,
        "roughnessFactor": 0.99
      },
      "emissiveFactor": [
        0,
        0,
        0
      ],
      "alphaMode": "OPAQUE",
      "doubleSided": false
    },
    {
      "name": "000008",
      "pbrMetallicRoughness": {
        "baseColorTexture": {
          "index": 3
        },
        "baseColorFactor": [
          1,
          1,
          1,
          1
        ],
        "metallicFactor": 0,
        "roughnessFactor": 0.99
      },
      "emissiveFactor": [
        0,
        0,
        0
      ],
      "alphaMode": "OPAQUE",
      "doubleSided": false
    }
  ],
  "meshes": [
    {
      "name": "QJ002_1",
      "primitives": [
        {
          "attributes": {
            "POSITION": 0,
            "NORMAL": 1,
            "TEXCOORD_0": 2
          },
          "indices": 3,
          "material": 0,
          "mode": 4
        },
        {
          "attributes": {
            "POSITION": 4,
            "NORMAL": 5,
            "TEXCOORD_0": 6
          },
          "indices": 7,
          "material": 1,
          "mode": 4
        },
        {
          "attributes": {
            "POSITION": 8,
            "NORMAL": 9,
            "TEXCOORD_0": 10
          },
          "indices": 11,
          "material": 2,
          "mode": 4
        },
        {
          "attributes": {
            "POSITION": 12,
            "NORMAL": 13,
            "TEXCOORD_0": 14
          },
          "indices": 15,
          "material": 3,
          "mode": 4
        }
      ]
    }
  ],
  "nodes": [
    {
      "name": "QJ002",
      "mesh": 0
    }
  ],
  "samplers": [
    {
      "magFilter": 9729,
      "minFilter": 9986,
      "wrapS": 10497,
      "wrapT": 10497
    }
  ],
  "scene": 0,
  "scenes": [
    {
      "nodes": [
        0
      ]
    }
  ],
  "textures": [
    {
      "name": "MASXT0001",
      "sampler": 0,
      "source": 0
    },
    {
      "name": "MASXT0004",
      "sampler": 0,
      "source": 1
    },
    {
      "name": "MASXT0002",
      "sampler": 0,
      "source": 2
    },
    {
      "name": "MASXT0003",
      "sampler": 0,
      "source": 3
    }
  ]
}
