{
  "accessors": [
    {
      "name": "QJ001_1_0_positions",
      "componentType": 5126,
      "count": 1565,
      "min": [
        -10.680299758911133,
        0,
        -10.680299758911133
      ],
      "max": [
        10.680399894714355,
        31.1382999420166,
        10.680399894714355
      ],
      "type": "VEC3",
      "bufferView": 0,
      "byteOffset": 0
    },
    {
      "name": "QJ001_1_0_normals",
      "componentType": 5126,
      "count": 1565,
      "min": [
        -1,
        -1,
        -1
      ],
      "max": [
        1,
        1,
        1
      ],
      "type": "VEC3",
      "bufferView": 1,
      "byteOffset": 0
    },
    {
      "name": "QJ001_1_0_texcoords",
      "componentType": 5126,
      "count": 1565,
      "min": [
        -0.746999979019165,
        -0.746999979019165
      ],
      "max": [
        1.746999979019165,
        3.173099994659424
      ],
      "type": "VEC2",
      "bufferView": 2,
      "byteOffset": 0
    },
    {
      "name": "QJ001_1_0_indices",
      "componentType": 5123,
      "count": 5046,
      "min": [
        0
      ],
      "max": [
        1564
      ],
      "type": "SCALAR",
      "bufferView": 3,
      "byteOffset": 0
    },
    {
      "name": "QJ001_1_1_positions",
      "componentType": 5126,
      "count": 10,
      "min": [
        9.677800178527832,
        18.172700881958008,
        -4.087200164794922
      ],
      "max": [
        10.680399894714355,
        20.615800857543945,
        4.087200164794922
      ],
      "type": "VEC3",
      "bufferView": 0,
      "byteOffset": 18780
    },
    {
      "name": "QJ001_1_1_normals",
      "componentType": 5126,
      "count": 10,
      "min": [
        0.9109380841255188,
        0.08369924873113632,
        -0.3813191056251526
      ],
      "max": [
        0.9964910745620728,
        0.16680698096752167,
        0.3813191056251526
      ],
      "type": "VEC3",
      "bufferView": 1,
      "byteOffset": 18780
    },
    {
      "name": "QJ001_1_1_texcoords",
      "componentType": 5126,
      "count": 10,
      "min": [
        -0.0885000005364418,
        0.03449999913573265
      ],
      "max": [
        1.0885000228881836,
        0.6973000168800354
      ],
      "type": "VEC2",
      "bufferView": 2,
      "byteOffset": 12520
    },
    {
      "name": "QJ001_1_1_indices",
      "componentType": 5123,
      "count": 24,
      "min": [
        0
      ],
      "max": [
        9
      ],
      "type": "SCALAR",
      "bufferView": 3,
      "byteOffset": 10092
    },
    {
      "name": "QJ001_1_2_positions",
      "componentType": 5126,
      "count": 26,
      "min": [
        5.991600036621094,
        2.6391000747680664,
        -5.232999801635742
      ],
      "max": [
        5.991600036621094,
        13.258999824523926,
        5.3094000816345215
      ],
      "type": "VEC3",
      "bufferView": 0,
      "byteOffset": 18900
    },
    {
      "name": "QJ001_1_2_normals",
      "componentType": 5126,
      "count": 26,
      "min": [
        1,
        0,
        0
      ],
      "max": [
        1,
        0,
        0
      ],
      "type": "VEC3",
      "bufferView": 1,
      "byteOffset": 18900
    },
    {
      "name": "QJ001_1_2_texcoords",
      "componentType": 5126,
      "count": 26,
      "min": [
        0.0005000000237487257,
        0.0005000000237487257
      ],
      "max": [
        0.9994999766349792,
        0.9994999766349792
      ],
      "type": "VEC2",
      "bufferView": 2,
      "byteOffset": 12600
    },
    {
      "name": "QJ001_1_2_indices",
      "componentType": 5123,
      "count": 72,
      "min": [
        0
      ],
      "max": [
        25
      ],
      "type": "SCALAR",
      "bufferView": 3,
      "byteOffset": 10140
    }
  ],
  "asset": {
    "generator": "obj2gltf",
    "version": "2.0"
  },
  "buffers": [
    {
      "name": "QJ001",
      "byteLength": 790720,
      "uri": "data:application/octet-stream;base64,"
    }
  ],
  "bufferViews": [
    {
      "name": "bufferView_0",
      "buffer": 0,
      "byteLength": 19212,
      "byteOffset": 0,
      "byteStride": 12,
      "target": 34962
    },
    {
      "name": "bufferView_1",
      "buffer": 0,
      "byteLength": 19212,
      "byteOffset": 19212,
      "byteStride": 12,
      "target": 34962
    },
    {
      "name": "bufferView_2",
      "buffer": 0,
      "byteLength": 12808,
      "byteOffset": 38424,
      "byteStride": 8,
      "target": 34962
    },
    {
      "name": "bufferView_3",
      "buffer": 0,
      "byteLength": 10284,
      "byteOffset": 51232,
      "target": 34963
    },
    {
      "buffer": 0,
      "byteOffset": 61516,
      "byteLength": 61404
    },
    {
      "buffer": 0,
      "byteOffset": 122920,
      "byteLength": 610140
    },
    {
      "buffer": 0,
      "byteOffset": 733060,
      "byteLength": 57657
    }
  ],
  "images": [
    {
      "name": "MASXT0001",
      "mimeType": "image/tiff",
      "bufferView": 4
    },
    {
      "name": "MASXT0004",
      "mimeType": "image/tiff",
      "bufferView": 5
    },
    {
      "name": "MASXT0009",
      "mimeType": "image/jpeg",
      "bufferView": 6
    }
  ],
  "materials": [
    {
      "name": "000005",
      "pbrMetallicRoughness": {
        "baseColorTexture": {
          "index": 0
        },
        "baseColorFactor": [
          1,
          1,
          1,
          1
        ],
        "metallicFactor": 0,
        "roughnessFactor": 0.99
      },
      "emissiveFactor": [
        0,
        0,
        0
      ],
      "alphaMode": "OPAQUE",
      "doubleSided": false
    },
    {
      "name": "000007",
      "pbrMetallicRoughness": {
        "baseColorTexture": {
          "index": 1
        },
        "baseColorFactor": [
          1,
          1,
          1,
          1
        ],
        "metallicFactor": 0,
        "roughnessFactor": 0.99
      },
      "emissiveFactor": [
        0,
        0,
        0
      ],
      "alphaMode": "OPAQUE",
      "doubleSided": false
    },
    {
      "name": "Material__86",
      "pbrMetallicRoughness": {
        "baseColorTexture": {
          "index": 2
        },
        "baseColorFactor": [
          1,
          1,
          1,
          1
        ],
        "metallicFactor": 0,
        "roughnessFactor": 0.99
      },
      "emissiveFactor": [
        0,
        0,
        0
      ],
      "alphaMode": "OPAQUE",
      "doubleSided": false
    }
  ],
  "meshes": [
    {
      "name": "QJ001_1",
      "primitives": [
        {
          "attributes": {
            "POSITION": 0,
            "NORMAL": 1,
            "TEXCOORD_0": 2
          },
          "indices": 3,
          "material": 0,
          "mode": 4
        },
        {
          "attributes": {
            "POSITION": 4,
            "NORMAL": 5,
            "TEXCOORD_0": 6
          },
          "indices": 7,
          "material": 1,
          "mode": 4
        },
        {
          "attributes": {
            "POSITION": 8,
            "NORMAL": 9,
            "TEXCOORD_0": 10
          },
          "indices": 11,
          "material": 2,
          "mode": 4
        }
      ]
    }
  ],
  "nodes": [
    {
      "name": "QJ001",
      "mesh": 0
    }
  ],
  "samplers": [
    {
      "magFilter": 9729,
      "minFilter": 9986,
      "wrapS": 10497,
      "wrapT": 10497
    }
  ],
  "scene": 0,
  "scenes": [
    {
      "nodes": [
        0
      ]
    }
  ],
  "textures": [
    {
      "name": "MASXT0001",
      "sampler": 0,
      "source": 0
    },
    {
      "name": "MASXT0004",
      "sampler": 0,
      "source": 1
    },
    {
      "name": "MASXT0009",
      "sampler": 0,
      "source": 2
    }
  ]
}
